<svg width="84" height="84" viewBox="0 0 84 84" fill="none" xmlns="http://www.w3.org/2000/svg">
<rect width="84" height="84" rx="5" fill="#14F194"/>
<path d="M56.5003 30.3034C56.3553 30.2792 56.1862 30.2792 56.0412 30.3034C52.7062 30.1825 50.0479 27.4517 50.0479 24.0684C50.0479 20.6125 52.827 17.8334 56.2828 17.8334C59.7387 17.8334 62.5178 20.6367 62.5178 24.0684C62.4937 27.4517 59.8353 30.1825 56.5003 30.3034Z" stroke="black" stroke-width="1.5" stroke-linecap="round" stroke-linejoin="round"/>
<path d="M54.011 47.8967C57.3218 48.4526 60.971 47.8726 63.5327 46.1567C66.9402 43.8851 66.9402 40.1634 63.5327 37.8917C60.9468 36.1759 57.2493 35.5959 53.9385 36.1759" stroke="black" stroke-width="1.5" stroke-linecap="round" stroke-linejoin="round"/>
<path d="M27.4277 30.3034C27.5727 30.2792 27.7418 30.2792 27.8868 30.3034C31.2218 30.1825 33.8802 27.4517 33.8802 24.0684C33.8802 20.6125 31.101 17.8334 27.6452 17.8334C24.1893 17.8334 21.4102 20.6367 21.4102 24.0684C21.4343 27.4517 24.0927 30.1825 27.4277 30.3034Z" stroke="black" stroke-width="1.5" stroke-linecap="round" stroke-linejoin="round"/>
<path d="M29.9171 47.8967C26.6063 48.4526 22.9571 47.8726 20.3955 46.1567C16.988 43.8851 16.988 40.1634 20.3955 37.8917C22.9813 36.1759 26.6788 35.5959 29.9896 36.1759" stroke="black" stroke-width="1.5" stroke-linecap="round" stroke-linejoin="round"/>
<path d="M42.0003 48.3559C41.8553 48.3317 41.6862 48.3317 41.5412 48.3559C38.2062 48.235 35.5479 45.5042 35.5479 42.1209C35.5479 38.665 38.327 35.8859 41.7828 35.8859C45.2387 35.8859 48.0179 38.6892 48.0179 42.1209C47.9937 45.5042 45.3353 48.2592 42.0003 48.3559Z" stroke="black" stroke-width="1.5" stroke-linecap="round" stroke-linejoin="round"/>
<path d="M34.9677 55.9684C31.5602 58.24 31.5602 61.9617 34.9677 64.2334C38.8344 66.8192 45.1661 66.8192 49.0327 64.2334C52.4402 61.9617 52.4402 58.24 49.0327 55.9684C45.1902 53.4067 38.8344 53.4067 34.9677 55.9684Z" stroke="black" stroke-width="1.5" stroke-linecap="round" stroke-linejoin="round"/>
</svg>
