<svg width="206" height="163" viewBox="0 0 206 163" fill="none" xmlns="http://www.w3.org/2000/svg">
<path d="M67.6388 76.326C75.6055 79.8313 81.8195 85.0893 86.2808 92.1C90.7421 99.1107 92.9728 107.396 92.9728 116.956C92.9728 130.659 88.6708 141.812 80.0668 150.416C71.4628 158.701 60.4688 162.844 47.0848 162.844C33.7008 162.844 22.5475 158.542 13.6248 149.938C5.0208 141.334 0.718798 130.34 0.718798 116.956C0.718798 110.583 1.51546 104.209 3.1088 97.836C4.70213 91.4627 8.20747 81.9026 13.6248 69.156L41.3488 0.323979H88.6708L67.6388 76.326ZM180.447 76.326C188.413 79.8313 194.627 85.0893 199.089 92.1C203.55 99.1107 205.781 107.396 205.781 116.956C205.781 130.659 201.479 141.812 192.875 150.416C184.271 158.701 173.277 162.844 159.893 162.844C146.509 162.844 135.355 158.542 126.433 149.938C117.829 141.334 113.527 130.34 113.527 116.956C113.527 110.583 114.323 104.209 115.917 97.836C117.51 91.4627 121.015 81.9026 126.433 69.156L154.157 0.323979H201.479L180.447 76.326Z" fill="white"/>
</svg>
