<svg width="84" height="84" viewBox="0 0 84 84" fill="none" xmlns="http://www.w3.org/2000/svg">
<rect width="84" height="84" rx="5" fill="#14F194"/>
<path d="M42.3623 52.875V57.95" stroke="black" stroke-width="1.5" stroke-linecap="round" stroke-linejoin="round"/>
<path d="M30.2793 66.1666H54.446V63.75C54.446 61.0916 52.271 58.9166 49.6126 58.9166H35.1126C32.4543 58.9166 30.2793 61.0916 30.2793 63.75V66.1666V66.1666Z" stroke="black" stroke-width="1.5" stroke-miterlimit="10"/>
<path d="M27.8623 66.1666H56.8623" stroke="black" stroke-width="1.5" stroke-linecap="round" stroke-linejoin="round"/>
<path d="M41.9997 51.6667C32.6472 51.6667 25.083 44.1025 25.083 34.75V27.5C25.083 22.1592 29.4088 17.8334 34.7497 17.8334H49.2497C54.5905 17.8334 58.9163 22.1592 58.9163 27.5V34.75C58.9163 44.1025 51.3522 51.6667 41.9997 51.6667Z" stroke="black" stroke-width="1.5" stroke-linecap="round" stroke-linejoin="round"/>
<path d="M26.2189 41.1541C24.4064 40.5741 22.8114 39.5108 21.5547 38.2541C19.3797 35.8375 17.9297 32.9375 17.9297 29.5541C17.9297 26.1708 20.588 23.5125 23.9714 23.5125H25.5422C25.0589 24.6241 24.8172 25.8566 24.8172 27.1375V34.3875C24.8172 36.8041 25.3247 39.0758 26.2189 41.1541Z" stroke="black" stroke-width="1.5" stroke-linecap="round" stroke-linejoin="round"/>
<path d="M57.7812 41.1541C59.5938 40.5741 61.1887 39.5108 62.4454 38.2541C64.6204 35.8375 66.0704 32.9375 66.0704 29.5541C66.0704 26.1708 63.4121 23.5125 60.0287 23.5125H58.4579C58.9412 24.6241 59.1829 25.8566 59.1829 27.1375V34.3875C59.1829 36.8041 58.6754 39.0758 57.7812 41.1541Z" stroke="black" stroke-width="1.5" stroke-linecap="round" stroke-linejoin="round"/>
</svg>
