<svg width="91" height="92" viewBox="0 0 91 92" fill="none" xmlns="http://www.w3.org/2000/svg">
<rect x="0.5" y="0.5" width="90" height="91" rx="27.5" stroke="white"/>
<path d="M42.4581 73.75H49.5981C52.3181 73.75 54.0748 71.8233 53.5648 69.4717L52.4031 64.3435H39.6531L38.4914 69.4717C37.9814 71.6817 39.9081 73.75 42.4581 73.75Z" stroke="white" stroke-width="1.5" stroke-linecap="round" stroke-linejoin="round"/>
<path d="M52.4032 64.3152L57.3049 59.9517C60.0532 57.5151 60.1666 55.8149 57.9849 53.0666L49.3432 42.1018C47.5299 39.8068 44.5549 39.8068 42.7416 42.1018L34.0999 53.0666C31.9182 55.8149 31.9182 57.6001 34.7799 59.9517L39.6816 64.3152" stroke="white" stroke-width="1.5" stroke-linecap="round" stroke-linejoin="round"/>
<path d="M46.0283 41.5067V48.6751" stroke="white" stroke-width="1.5" stroke-linecap="round" stroke-linejoin="round"/>
<path d="M43.5916 24.7051L41.3816 22.495C40.0499 21.1633 40.0499 19.0101 41.3816 17.6785L43.5916 15.4684C44.9232 14.1367 47.0766 14.1367 48.4082 15.4684L50.6182 17.6785C51.9499 19.0101 51.9499 21.1633 50.6182 22.495L48.4082 24.7051C47.0766 26.0367 44.9232 26.0367 43.5916 24.7051Z" stroke="white" stroke-width="1.5" stroke-linecap="round" stroke-linejoin="round"/>
<path d="M67.108 37.795H70.2247C72.0947 37.795 73.6247 39.325 73.6247 41.195V44.3116C73.6247 46.1816 72.0947 47.7118 70.2247 47.7118H67.108C65.238 47.7118 63.708 46.1816 63.708 44.3116V41.195C63.708 39.325 65.238 37.795 67.108 37.795Z" stroke="white" stroke-width="1.5" stroke-linecap="round" stroke-linejoin="round"/>
<path d="M24.8917 37.795H21.775C19.905 37.795 18.375 39.325 18.375 41.195V44.3116C18.375 46.1816 19.905 47.7118 21.775 47.7118H24.8917C26.7617 47.7118 28.2917 46.1816 28.2917 44.3116V41.195C28.2917 39.325 26.7617 37.795 24.8917 37.795Z" stroke="white" stroke-width="1.5" stroke-linecap="round" stroke-linejoin="round"/>
<path d="M64.5303 38.6166L49.5137 23.6" stroke="white" stroke-width="1.5" stroke-linecap="round" stroke-linejoin="round"/>
<path d="M27.4697 38.6166L42.4864 23.6" stroke="white" stroke-width="1.5" stroke-linecap="round" stroke-linejoin="round"/>
</svg>
