<svg width="13" height="13" viewBox="0 0 13 13" fill="none" xmlns="http://www.w3.org/2000/svg">
<g filter="url(#filter0_i_77_1648)">
<path fill-rule="evenodd" clip-rule="evenodd" d="M3.98831 0.514332C4.65808 0.485028 4.87163 0.478516 6.57774 0.478516C8.28385 0.478516 8.4974 0.48557 9.1666 0.514332C9.83579 0.543094 10.2926 0.644574 10.6923 0.791639C11.1108 0.941959 11.4905 1.17694 11.8046 1.48083C12.1243 1.77876 12.371 2.1391 12.5286 2.53742C12.6839 2.91729 12.7901 3.35143 12.8209 3.98636C12.8518 4.624 12.8586 4.82696 12.8586 6.44793C12.8586 8.06944 12.8512 8.2724 12.8209 8.90896C12.7907 9.54389 12.6839 9.97803 12.5286 10.3579C12.371 10.7563 12.1239 11.1172 11.8046 11.4156C11.4905 11.7195 11.1108 11.9539 10.6923 12.1037C10.2926 12.2513 9.83579 12.3522 9.16774 12.3815C8.4974 12.4108 8.28385 12.4173 6.57774 12.4173C4.87163 12.4173 4.65808 12.4103 3.98831 12.3815C3.32025 12.3528 2.86346 12.2513 2.46377 12.1037C2.04462 11.9539 1.66486 11.7191 1.35092 11.4156C1.03138 11.1175 0.784107 10.7567 0.626335 10.3584C0.471597 9.97857 0.365394 9.54443 0.33456 8.9095C0.303727 8.27186 0.296875 8.0689 0.296875 6.44793C0.296875 4.82642 0.304298 4.62346 0.33456 3.98745C0.364823 3.35143 0.471597 2.91729 0.626335 2.53742C0.78434 2.13914 1.0318 1.77839 1.35149 1.48029C1.66498 1.17667 2.04437 0.941657 2.4632 0.791639C2.86289 0.644574 3.31968 0.543637 3.98774 0.514332H3.98831ZM9.11578 1.58883C8.45343 1.56007 8.25473 1.5541 6.57774 1.5541C4.90075 1.5541 4.70204 1.56007 4.0397 1.58883C3.42703 1.61542 3.09471 1.71256 2.87317 1.7945C2.58025 1.90304 2.3707 2.03165 2.15087 2.24058C1.94249 2.43326 1.78212 2.66782 1.68152 2.92706C1.5953 3.13762 1.49309 3.45346 1.46512 4.03575C1.43485 4.66525 1.42857 4.8541 1.42857 6.44793C1.42857 8.04177 1.43485 8.23062 1.46512 8.86012C1.49309 9.44241 1.5953 9.75825 1.68152 9.9688C1.78201 10.2277 1.94246 10.4626 2.15087 10.6553C2.35357 10.8534 2.60081 11.0059 2.87317 11.1014C3.09471 11.1833 3.42703 11.2804 4.0397 11.307C4.70204 11.3358 4.90018 11.3418 6.57774 11.3418C8.2553 11.3418 8.45343 11.3358 9.11578 11.307C9.72845 11.2804 10.0608 11.1833 10.2823 11.1014C10.5752 10.9928 10.7848 10.8642 11.0046 10.6553C11.213 10.4626 11.3735 10.2277 11.474 9.9688C11.5602 9.75825 11.6624 9.44241 11.6904 8.86012C11.7206 8.23062 11.7269 8.04177 11.7269 6.44793C11.7269 4.8541 11.7206 4.66525 11.6904 4.03575C11.6624 3.45346 11.5602 3.13762 11.474 2.92706C11.3598 2.64867 11.2244 2.44951 11.0046 2.24058C10.8019 2.04254 10.5551 1.89013 10.2823 1.7945C10.0608 1.71256 9.72845 1.61542 9.11578 1.58883ZM5.7755 8.28814C6.22353 8.46539 6.72241 8.48932 7.18694 8.35582C7.65147 8.22233 8.05282 7.9397 8.32245 7.5562C8.59208 7.17271 8.71326 6.71214 8.6653 6.25317C8.61733 5.79419 8.40319 5.36528 8.05945 5.03969C7.84033 4.83156 7.57538 4.6722 7.28367 4.57307C6.99196 4.47394 6.68076 4.43752 6.37247 4.46642C6.06417 4.49532 5.76645 4.58883 5.50074 4.74021C5.23504 4.89159 5.00795 5.09708 4.83583 5.34188C4.66371 5.58669 4.55084 5.86471 4.50535 6.15595C4.45986 6.44719 4.48287 6.74439 4.57274 7.02616C4.66261 7.30793 4.81709 7.56726 5.02506 7.78547C5.23304 8.00369 5.48934 8.17536 5.7755 8.28814ZM4.29493 4.27832C4.59471 3.9934 4.95061 3.76739 5.34229 3.6132C5.73398 3.459 6.15378 3.37964 6.57774 3.37964C7.0017 3.37964 7.4215 3.459 7.81319 3.6132C8.20487 3.76739 8.56077 3.9934 8.86055 4.27832C9.16033 4.56324 9.39813 4.90148 9.56037 5.27375C9.72261 5.64601 9.80612 6.045 9.80612 6.44793C9.80612 6.85087 9.72261 7.24986 9.56037 7.62212C9.39813 7.99438 9.16033 8.33263 8.86055 8.61754C8.25511 9.19296 7.43396 9.51623 6.57774 9.51623C5.72152 9.51623 4.90037 9.19296 4.29493 8.61754C3.68949 8.04213 3.34936 7.26169 3.34936 6.44793C3.34936 5.63417 3.68949 4.85374 4.29493 4.27832ZM10.5221 3.83658C10.5964 3.76998 10.6559 3.68989 10.697 3.60105C10.7382 3.51221 10.7601 3.41643 10.7616 3.31938C10.7631 3.22233 10.7441 3.12598 10.7057 3.03604C10.6673 2.94609 10.6103 2.86439 10.5381 2.79576C10.4659 2.72712 10.3799 2.67296 10.2853 2.63647C10.1906 2.59998 10.0893 2.58191 9.98715 2.58332C9.88503 2.58474 9.78425 2.60561 9.69078 2.64471C9.5973 2.6838 9.51303 2.74032 9.44296 2.81093C9.30667 2.94824 9.23205 3.13063 9.23495 3.31938C9.23784 3.50812 9.31802 3.68837 9.45846 3.82185C9.5989 3.95532 9.78855 4.03153 9.98715 4.03428C10.1857 4.03703 10.3776 3.96611 10.5221 3.83658Z" fill="black"/>
</g>
<defs>
<filter id="filter0_i_77_1648" x="0.296875" y="0.478516" width="12.5615" height="13.3592" filterUnits="userSpaceOnUse" color-interpolation-filters="sRGB">
<feFlood flood-opacity="0" result="BackgroundImageFix"/>
<feBlend mode="normal" in="SourceGraphic" in2="BackgroundImageFix" result="shape"/>
<feColorMatrix in="SourceAlpha" type="matrix" values="0 0 0 0 0 0 0 0 0 0 0 0 0 0 0 0 0 0 127 0" result="hardAlpha"/>
<feOffset dy="1.42045"/>
<feGaussianBlur stdDeviation="0.710226"/>
<feComposite in2="hardAlpha" operator="arithmetic" k2="-1" k3="1"/>
<feColorMatrix type="matrix" values="0 0 0 0 0 0 0 0 0 0 0 0 0 0 0 0 0 0 0.25 0"/>
<feBlend mode="normal" in2="shape" result="effect1_innerShadow_77_1648"/>
</filter>
</defs>
</svg>
