<svg width="193" height="51" viewBox="0 0 193 51" fill="none" xmlns="http://www.w3.org/2000/svg">
<path d="M56.6064 16.3583H61.2777V35.2445H56.6064V16.3583ZM63.1404 28.1404C63.1404 23.4624 66.0509 20.6585 70.4166 20.6585C74.7823 20.6585 77.6927 23.4624 77.6927 28.1404C77.6927 32.8184 74.8841 35.6513 70.4166 35.6513C65.949 35.6513 63.1404 32.92 63.1404 28.1404ZM73.0651 28.1404C73.0651 25.569 72.061 24.0581 70.4602 24.0581C68.8595 24.0581 67.8699 25.5108 67.8699 28.1404C67.8699 30.7699 68.8595 32.2082 70.4602 32.2082C72.061 32.2082 73.0942 30.7699 73.0942 28.1549L73.0651 28.1404ZM79.5554 36.2179H84.0666C84.272 36.7027 84.6307 37.1073 85.0879 37.3695C85.5452 37.6319 86.0757 37.7376 86.5987 37.6707C88.3887 37.6707 89.32 36.7118 89.32 35.2881V32.6731H89.3346C88.9491 33.4874 88.3257 34.166 87.5465 34.6198C86.7673 35.0737 85.8687 35.2813 84.9689 35.2154C81.5491 35.2154 79.2789 32.615 79.2789 28.1404C79.2789 23.6658 81.4472 20.8765 85.0999 20.8765C86.0226 20.8272 86.9381 21.0647 87.7199 21.5565C88.5017 22.0483 89.1116 22.77 89.4655 23.6222H89.3346V20.9927H93.9622V35.1428C93.9622 38.5569 90.9353 40.6924 86.4823 40.6924C82.4368 40.6779 79.8465 38.8329 79.5845 36.2324L79.5554 36.2179ZM89.3346 28.1404C89.3346 25.8595 88.2868 24.4213 86.6278 24.4213C84.9689 24.4213 83.9502 25.874 83.9502 28.1404C83.9502 30.4067 84.9543 31.7433 86.6278 31.7433C88.3014 31.7433 89.3346 30.5084 89.3346 28.1404ZM95.8103 28.1404C95.8103 23.4624 98.7208 20.6585 103.086 20.6585C107.452 20.6585 110.363 23.4624 110.363 28.1404C110.363 32.8184 107.539 35.6513 103.086 35.6513C98.6335 35.6513 95.8395 32.92 95.8395 28.1404H95.8103ZM105.735 28.1404C105.735 25.569 104.716 24.0581 103.13 24.0581C101.544 24.0581 100.54 25.5108 100.54 28.1404C100.54 30.7699 101.529 32.2082 103.13 32.2082C104.731 32.2082 105.764 30.7699 105.764 28.1549L105.735 28.1404ZM112.254 17.5496C112.234 17.0745 112.357 16.6043 112.606 16.1994C112.856 15.7943 113.221 15.4733 113.655 15.2773C114.089 15.0812 114.572 15.0193 115.041 15.0995C115.511 15.1795 115.945 15.398 116.289 15.7268C116.633 16.0557 116.871 16.4796 116.972 16.9444C117.072 17.4091 117.031 17.8933 116.854 18.3345C116.677 18.7759 116.371 19.1542 115.977 19.4208C115.583 19.6874 115.117 19.83 114.641 19.8305C114.337 19.8382 114.034 19.7854 113.75 19.6754C113.466 19.5653 113.207 19.4 112.988 19.1892C112.768 18.9784 112.593 18.7262 112.472 18.4471C112.352 18.1682 112.287 17.868 112.284 17.5641L112.254 17.5496ZM112.254 20.9782H116.984V35.3026H112.327L112.254 20.9782ZM133.996 28.1404C133.996 32.8038 131.9 35.506 128.335 35.506C127.422 35.5622 126.514 35.3373 125.733 34.862C124.952 34.3865 124.337 33.6833 123.969 32.8474H123.882V39.9079H119.21V21.0217H123.853V23.5786H123.94C124.295 22.7263 124.905 22.0038 125.686 21.5099C126.467 21.0159 127.382 20.7745 128.306 20.8183C131.973 20.7893 134.083 23.4769 134.083 28.1549L133.996 28.1404ZM129.237 28.1404C129.237 25.874 128.175 24.4067 126.53 24.4067C124.886 24.4067 123.853 25.8595 123.838 28.1404C123.824 30.4213 124.886 31.8595 126.53 31.8595C128.175 31.8595 129.324 30.5084 129.324 28.1549L129.237 28.1404ZM141.97 20.644C145.885 20.644 148.315 22.4891 148.344 25.4527H144.08C144.08 24.4213 143.222 23.782 141.941 23.782C140.661 23.782 140.049 24.276 140.049 25.0169C140.049 25.7578 140.588 25.9903 141.665 26.2082L144.662 26.8183C147.573 27.4285 148.737 28.5907 148.737 30.7554C148.737 33.661 146.045 35.6368 142.043 35.6368C138.041 35.6368 135.436 33.7191 135.247 30.799H139.773C139.904 31.8595 140.748 32.4842 142.116 32.4842C143.484 32.4842 144.124 32.0484 144.124 31.2784C144.124 30.5084 143.687 30.3777 142.567 30.1452L139.86 29.5786C137.052 28.983 135.582 27.5157 135.582 25.322C135.669 22.4745 138.114 20.6585 142.058 20.6585L141.97 20.644ZM164.381 35.2881H159.855V32.6004H159.768C159.514 33.4969 158.963 34.2804 158.203 34.8217C157.444 35.3632 156.523 35.6301 155.591 35.5786C154.888 35.6014 154.187 35.4756 153.536 35.2092C152.886 34.9429 152.298 34.5421 151.813 34.0332C151.327 33.5241 150.956 32.9184 150.722 32.256C150.488 31.5935 150.396 30.8889 150.454 30.1888V20.9927H155.126V29.1864C155.126 30.8716 156.013 31.7869 157.468 31.7869C157.81 31.7843 158.147 31.7086 158.457 31.565C158.767 31.4214 159.042 31.213 159.263 30.9541C159.485 30.6953 159.65 30.3918 159.744 30.0643C159.838 29.7367 159.861 29.3928 159.811 29.0556V20.9927H164.468L164.381 35.2881ZM166.636 20.9782H171.177V23.7384H171.279C171.529 22.8541 172.067 22.0779 172.807 21.5311C173.547 20.9844 174.448 20.6979 175.368 20.7167C176.292 20.6365 177.213 20.9032 177.949 21.4647C178.687 22.0262 179.188 22.8422 179.355 23.753H179.559C179.85 22.8373 180.435 22.0432 181.225 21.4942C182.014 20.945 182.964 20.6718 183.925 20.7167C184.563 20.6924 185.201 20.8031 185.793 21.0415C186.387 21.2798 186.922 21.6405 187.366 22.1C187.81 22.5594 188.151 23.1072 188.367 23.7075C188.586 24.3078 188.673 24.947 188.625 25.5835V35.3026H183.925V26.7748C183.925 25.322 183.241 24.5084 181.916 24.5084C181.622 24.5036 181.331 24.5623 181.062 24.6803C180.793 24.7984 180.554 24.9732 180.359 25.1925C180.164 25.4121 180.019 25.6708 179.933 25.9515C179.848 26.2322 179.825 26.5278 179.864 26.8183V35.3026H175.411V26.7312C175.411 25.2784 174.698 24.5084 173.418 24.5084C173.121 24.5061 172.827 24.5671 172.556 24.6874C172.284 24.8078 172.043 24.9846 171.845 25.2062C171.648 25.4277 171.501 25.6888 171.414 25.9718C171.325 26.255 171.299 26.5535 171.337 26.8474V35.3026H166.666L166.636 20.9782Z" fill="white"/>
<path d="M47.3654 17.5931C47.3656 14.7016 46.491 11.8775 44.8562 9.49069C43.2214 7.10385 40.9024 5.26557 38.2034 4.21666C35.5044 3.16773 32.5509 2.95708 29.7299 3.61227C26.9088 4.26746 24.3518 5.75796 22.3937 7.88853H4.23242V46.1549H42.5777V28.2711C44.0827 26.9273 45.2871 25.2817 46.112 23.4417C46.937 21.6018 47.3641 19.609 47.3654 17.5931ZM39.9874 17.5931C39.9903 18.9786 39.5814 20.334 38.8124 21.4875C38.0434 22.6408 36.949 23.5407 35.6675 24.0728C34.3861 24.6051 32.9754 24.7459 31.6137 24.4773C30.2522 24.2088 29.001 23.543 28.0186 22.5643C27.0361 21.5855 26.3667 20.3379 26.0949 18.9791C25.8231 17.6204 25.9612 16.2117 26.4916 14.9313C27.022 13.6509 27.9211 12.5565 29.0748 11.7864C30.2286 11.0163 31.5853 10.6052 32.9732 10.6052C34.8309 10.6052 36.6129 11.341 37.9278 12.6511C39.2429 13.9611 39.9836 15.7385 39.9874 17.5931ZM35.1997 38.7893H11.6104V15.2541H18.7992C18.6604 16.0263 18.5874 16.8088 18.581 17.5931C18.5849 21.4026 20.1024 25.0549 22.8007 27.7487C25.4988 30.4423 29.1573 31.9574 32.9732 31.9612C33.7193 31.9572 34.4638 31.894 35.1997 31.7723V38.7893Z" fill="white"/>
</svg>
