<svg width="192" height="51" viewBox="0 0 192 51" fill="none" xmlns="http://www.w3.org/2000/svg">
<path d="M44.6492 17.7966C45.17 17.7966 45.3436 17.9855 45.3436 18.4939V30H51.2316C51.7379 30 51.926 30.1889 51.926 30.6973V31.7143C51.926 32.2228 51.7379 32.4116 51.2316 32.4116H43.4774C42.9711 32.4116 42.7686 32.2228 42.7686 31.7143V18.4939C42.7686 17.9855 42.9711 17.7966 43.4774 17.7966H44.6492Z" fill="white"/>
<path d="M57.0615 22.8668C57.0615 19.5108 59.1737 17.4915 62.8482 17.4915C66.5227 17.4915 68.6349 19.5108 68.6349 22.8668V27.3413C68.6349 30.6973 66.5083 32.7166 62.8482 32.7166C59.1881 32.7166 57.0615 30.6973 57.0615 27.3413V22.8668ZM66.2045 22.8668C66.2045 20.9781 65.0327 19.9612 62.9205 19.9612C60.8084 19.9612 59.6511 20.9927 59.6511 22.8668V27.3704C59.6511 29.2735 60.8084 30.276 62.9205 30.276C65.0327 30.276 66.2045 29.23 66.2045 27.3704V22.8668Z" fill="white"/>
<path d="M85.8652 24.4068C86.4294 24.4068 86.5596 24.5957 86.5596 25.1041V27.8644C86.5749 28.5146 86.4451 29.16 86.1798 29.7532C85.9144 30.3465 85.5203 30.8726 85.0261 31.293C83.7989 32.2744 82.2515 32.7612 80.6861 32.6586C76.9392 32.6586 74.8994 30.6393 74.8994 27.2833V22.7797C74.8994 19.4673 77.0116 17.4334 80.6861 17.4334C83.5794 17.4334 85.4601 18.5811 86.2558 20.8765C86.3003 20.9628 86.3242 21.0583 86.3255 21.1553C86.3268 21.2525 86.3055 21.3487 86.2634 21.436C86.2213 21.5235 86.1594 21.5999 86.0828 21.6592C86.0061 21.7183 85.9167 21.7588 85.8218 21.7773L84.6934 22.1695C84.2015 22.3439 83.999 22.2422 83.8254 21.7337C83.5857 21.1132 83.1469 20.5905 82.5783 20.2485C82.0098 19.9065 81.344 19.7644 80.6861 19.8451C78.5595 19.8451 77.4022 20.8765 77.4022 22.7506V27.3705C77.4022 29.2736 78.574 30.2761 80.6861 30.2761C82.7982 30.2761 84.1002 29.3027 84.1002 27.879V26.8039H80.961C80.4402 26.8039 80.2521 26.6005 80.2521 26.092V25.1041C80.2521 24.5957 80.4402 24.4068 80.961 24.4068H85.8652Z" fill="white"/>
<path d="M92.5342 22.8668C92.5342 19.5108 94.6463 17.4915 98.3209 17.4915C101.995 17.4915 104.108 19.5108 104.108 22.8668V27.3413C104.108 30.6973 101.981 32.7166 98.3209 32.7166C94.6608 32.7166 92.5342 30.6973 92.5342 27.3413V22.8668ZM101.663 22.8668C101.663 20.9781 100.491 19.9612 98.3932 19.9612C96.2955 19.9612 95.1093 20.9927 95.1093 22.8668V27.3704C95.1093 29.2735 96.2811 30.276 98.3932 30.276C100.505 30.276 101.663 29.23 101.663 27.3704V22.8668Z" fill="white"/>
<path d="M110.921 18.2179C110.921 17.8983 111.022 17.7966 111.34 17.7966H112.006C112.324 17.7966 112.396 17.8983 112.396 18.2179V31.9903C112.396 32.3099 112.397 32.4116 112.006 32.4116H111.34C111.022 32.4116 110.921 32.3099 110.921 31.9903V18.2179Z" fill="white"/>
<path d="M125.576 17.7966C126.781 17.7966 127.936 18.2772 128.788 19.1327C129.64 19.9881 130.119 21.1485 130.119 22.3583C130.119 23.5682 129.64 24.7286 128.788 25.584C127.936 26.4395 126.781 26.9201 125.576 26.9201H121.236V31.9903C121.236 32.3099 121.164 32.4116 120.86 32.4116H120.18C119.876 32.4116 119.761 32.3099 119.761 31.9903V18.2179C119.761 17.8983 119.876 17.7966 120.18 17.7966H125.576ZM125.446 25.4818C125.86 25.4818 126.27 25.3999 126.653 25.2408C127.036 25.0816 127.383 24.8483 127.676 24.5542C127.969 24.2602 128.201 23.9109 128.36 23.5268C128.518 23.1426 128.6 22.7307 128.6 22.3148C128.6 21.8988 128.518 21.487 128.36 21.1027C128.201 20.7186 127.969 20.3693 127.676 20.0753C127.383 19.7812 127.036 19.5479 126.653 19.3887C126.27 19.2296 125.86 19.1477 125.446 19.1477H121.106V25.4818H125.446Z" fill="white"/>
<path d="M141.417 17.506C142.534 17.3822 143.66 17.6235 144.63 18.194C145.599 18.7647 146.36 19.634 146.798 20.6731C146.914 20.9055 146.798 21.0944 146.567 21.2106L145.93 21.5011C145.67 21.6028 145.569 21.5883 145.409 21.3123C145.082 20.5411 144.518 19.8947 143.8 19.4664C143.083 19.0381 142.248 18.8501 141.417 18.9297C138.972 18.9297 137.641 19.9031 137.641 21.6464C137.627 22.1792 137.805 22.6993 138.143 23.1104C138.48 23.5215 138.955 23.7963 139.478 23.8837C140.256 24.1385 141.063 24.2947 141.88 24.3486C142.868 24.4015 143.843 24.6023 144.773 24.9442C145.486 25.1707 146.1 25.6365 146.51 26.2635C146.921 26.8905 147.105 27.6405 147.03 28.3873C147.03 31.104 145.062 32.7457 141.446 32.7457C140.259 32.882 139.062 32.6059 138.054 31.9635C137.046 31.3212 136.287 30.3512 135.905 29.2154C135.879 29.1637 135.865 29.1069 135.864 29.0491C135.863 28.9913 135.875 28.934 135.898 28.8813C135.922 28.8286 135.957 28.7816 136 28.744C136.044 28.7062 136.095 28.6788 136.151 28.6634L136.787 28.4309C136.837 28.4103 136.891 28.4004 136.945 28.4019C137 28.4033 137.053 28.4161 137.102 28.4394C137.151 28.4626 137.194 28.4957 137.23 28.5368C137.265 28.5779 137.292 28.6259 137.308 28.6779C137.632 29.4986 138.207 30.1945 138.951 30.6647C139.695 31.1348 140.569 31.3549 141.446 31.2929C144.18 31.2929 145.525 30.3341 145.525 28.3873C145.551 27.8757 145.395 27.3714 145.085 26.9643C144.775 26.5574 144.331 26.274 143.833 26.1646C143.084 25.9404 142.312 25.8039 141.532 25.7578L139.97 25.5544C139.481 25.4502 138.998 25.3192 138.523 25.1622C138.054 25.0199 137.617 24.7881 137.236 24.4794C136.852 24.1304 136.549 23.7009 136.349 23.2214C136.149 22.7418 136.057 22.224 136.078 21.7045C136.18 19.1622 138.075 17.506 141.417 17.506Z" fill="white"/>
<path d="M154.828 27.4431C154.889 28.4705 155.339 29.4356 156.085 30.1412C156.832 30.8468 157.818 31.2397 158.842 31.2397C159.867 31.2397 160.853 30.8468 161.6 30.1412C162.346 29.4356 162.795 28.4705 162.857 27.4431V18.2179C162.857 17.8983 162.958 17.7966 163.277 17.7966H163.942C164.26 17.7966 164.362 17.8983 164.362 18.2179V27.4286C164.362 30.7264 162.423 32.7167 158.85 32.7167C155.276 32.7167 153.338 30.7264 153.338 27.4286V18.2179C153.338 17.8983 153.439 17.7966 153.743 17.7966H154.423C154.727 17.7966 154.828 17.8983 154.828 18.2179V27.4431Z" fill="white"/>
<path d="M184.326 17.7966C184.644 17.7966 184.745 17.8983 184.745 18.2179V31.9903C184.745 32.3099 184.644 32.4116 184.326 32.4116H183.718C183.414 32.4116 183.313 32.3099 183.313 31.9903V23.6077C183.313 22.3881 183.396 21.1698 183.559 19.9612H183.472C183.021 21.0664 182.493 22.1391 181.895 23.1719L178.785 28.6779C178.747 28.7735 178.681 28.8552 178.596 28.9123C178.51 28.9692 178.41 28.999 178.308 28.9975H177.903C177.798 28.9981 177.697 28.9681 177.609 28.9114C177.522 28.8546 177.453 28.7735 177.411 28.6779L174.257 23.1138C173.697 22.0958 173.214 21.0372 172.81 19.9467H172.724C172.871 21.1663 172.949 22.3936 172.955 23.6222V31.9903C172.955 32.3099 172.854 32.4116 172.535 32.4116H171.971C171.653 32.4116 171.552 32.3099 171.552 31.9903V18.2179C171.552 17.8983 171.653 17.7966 171.971 17.7966H172.492C172.611 17.7855 172.731 17.8115 172.834 17.8714C172.938 17.9313 173.02 18.0219 173.071 18.1307L178.134 27.167L183.169 18.2179C183.328 17.9128 183.414 17.8692 183.733 17.8692L184.326 17.7966Z" fill="white"/>
<path d="M18.9136 30.2034V40.707C18.9136 41.1097 18.7543 41.4959 18.4708 41.7805C18.1874 42.0652 17.8029 42.2252 17.4018 42.2252C17.001 42.2252 16.6164 42.0652 16.3329 41.7805C16.0493 41.4959 15.8901 41.1097 15.8901 40.707V30.2179C16.3111 30.5266 16.8156 30.6989 17.3367 30.7119C17.9047 30.7281 18.4612 30.5487 18.9136 30.2034ZM31.789 27.1671C31.4053 27.1671 31.0373 27.3202 30.766 27.5926C30.4948 27.865 30.3423 28.2346 30.3423 28.6199V30.4504C30.3423 30.8531 30.5016 31.2392 30.7851 31.5238C31.0685 31.8086 31.4531 31.9685 31.8541 31.9685C32.2551 31.9685 32.6396 31.8086 32.923 31.5238C33.2066 31.2392 33.3658 30.8531 33.3658 30.4504V28.6925C33.3771 28.4842 33.3436 28.2759 33.2675 28.0818C33.1914 27.8877 33.0746 27.7122 32.9249 27.5675C32.7753 27.4228 32.5964 27.3121 32.4005 27.2429C32.2045 27.1739 31.9958 27.1481 31.789 27.1671ZM12.6061 34.184C12.0856 34.1683 11.5816 33.9963 11.1595 33.6901V44.2228C11.1595 44.6274 11.3195 45.0154 11.6044 45.3015C11.8892 45.5875 12.2756 45.7482 12.6785 45.7482C13.0813 45.7482 13.4677 45.5875 13.7526 45.3015C14.0374 45.0154 14.1975 44.6274 14.1975 44.2228V33.7627C13.7251 34.0694 13.1677 34.217 12.6061 34.184ZM27.0728 24.0145C26.8768 24.0047 26.6809 24.035 26.4969 24.1036C26.313 24.1722 26.1449 24.2776 26.0027 24.4135C25.8607 24.5495 25.7477 24.7129 25.6704 24.8941C25.5933 25.0752 25.5535 25.2703 25.5538 25.4673V33.5593C25.5538 33.9639 25.7138 34.352 25.9987 34.638C26.2837 34.9241 26.6699 35.0848 27.0728 35.0848C27.4757 35.0848 27.8621 34.9241 28.147 34.638C28.4318 34.352 28.5918 33.9639 28.5918 33.5593V25.569C28.6034 25.3594 28.5696 25.1497 28.4926 24.9545C28.4156 24.7592 28.2976 24.583 28.1463 24.438C27.9949 24.293 27.8142 24.1826 27.6165 24.1146C27.4187 24.0465 27.2085 24.0222 27.0005 24.0436L27.0728 24.0145ZM22.2699 27.1235C21.7249 27.1197 21.1946 26.9473 20.7509 26.6296V37.1913C20.7509 37.5959 20.9109 37.9839 21.1957 38.27C21.4807 38.556 21.867 38.7167 22.2699 38.7167C22.6728 38.7167 23.059 38.556 23.344 38.27C23.6289 37.9839 23.7889 37.5959 23.7889 37.1913V26.6441C23.33 26.9874 22.7697 27.1664 22.1975 27.1526L22.2699 27.1235ZM9.32219 35.2155V5.70946C9.31838 5.34979 9.17343 5.00618 8.91881 4.75321C8.6642 4.50023 8.32048 4.35835 7.96232 4.35837H7.64405C7.28588 4.35835 6.94217 4.50023 6.68755 4.75321C6.43294 5.00618 6.28798 5.34979 6.28418 5.70946V35.2155C6.28418 35.5777 6.42746 35.9251 6.68248 36.1812C6.9375 36.4373 7.28339 36.5811 7.64405 36.5811H7.96232C8.32299 36.5811 8.66887 36.4373 8.92389 36.1812C9.17892 35.9251 9.32219 35.5777 9.32219 35.2155ZM12.7653 33.0654H12.447C12.0863 33.0654 11.7404 32.9216 11.4854 32.6654C11.2304 32.4093 11.0871 32.062 11.0871 31.6998V9.2252C11.0909 8.86554 11.2359 8.5219 11.4905 8.26894C11.7451 8.01597 12.0888 7.87409 12.447 7.87411H12.7653C13.1234 7.87409 13.4671 8.01597 13.7218 8.26894C13.9764 8.5219 14.1213 8.86554 14.1251 9.2252V31.7288C14.1251 32.091 13.9819 32.4384 13.7268 32.6945C13.4718 32.9506 13.1259 33.0944 12.7653 33.0944V33.0654ZM17.5537 29.6078H17.221C16.8643 29.6078 16.522 29.4654 16.2697 29.212C16.0174 28.9587 15.8756 28.6151 15.8756 28.2567V12.7119C15.8737 12.5332 15.9071 12.356 15.9738 12.1904C16.0405 12.0248 16.1393 11.8741 16.2645 11.7471C16.3896 11.6201 16.5386 11.5193 16.7028 11.4505C16.867 11.3817 17.0431 11.3462 17.221 11.3463H17.5537C17.9119 11.3501 18.2541 11.4957 18.5059 11.7513C18.7579 12.007 18.8991 12.3522 18.8991 12.7119V28.2567C18.8991 28.6151 18.7574 28.9587 18.5051 29.212C18.2528 29.4654 17.9106 29.6078 17.5537 29.6078ZM22.3422 26.0484H22.0384C21.6802 26.0484 21.3365 25.9066 21.0819 25.6536C20.8273 25.4006 20.6823 25.0571 20.6785 24.6974V16.3293C20.6667 16.1428 20.693 15.9558 20.7561 15.7799C20.819 15.6041 20.9174 15.443 21.0448 15.3068C21.1723 15.1706 21.3262 15.0622 21.4972 14.9881C21.6681 14.9142 21.8522 14.8761 22.0384 14.8765H22.3567C22.7173 14.8765 23.0632 15.0204 23.3183 15.2765C23.5733 15.5326 23.7166 15.88 23.7166 16.2421V24.6683C23.7184 24.8489 23.6847 25.028 23.6172 25.1954C23.5498 25.3627 23.4499 25.515 23.3233 25.6434C23.1969 25.7717 23.0465 25.8735 22.8804 25.9431C22.7144 26.0127 22.5365 26.0484 22.3567 26.0484H22.3422ZM27.1452 22.925H26.8269C26.4662 22.925 26.1203 22.7811 25.8653 22.525C25.6102 22.2689 25.467 21.9215 25.467 21.5593V19.3947C25.4708 19.035 25.6157 18.6914 25.8704 18.4385C26.125 18.1854 26.4687 18.0436 26.8269 18.0436H27.1452C27.5034 18.0436 27.8471 18.1854 28.1017 18.4385C28.3563 18.6914 28.5013 19.035 28.505 19.3947V21.5593C28.505 21.919 28.3638 22.2642 28.1118 22.5199C27.86 22.7756 27.5178 22.9212 27.1596 22.925H27.1452Z" fill="white"/>
</svg>
