<svg width="204" height="45" viewBox="0 0 204 45" fill="none" xmlns="http://www.w3.org/2000/svg">
<path d="M32.5701 20.0308C32.0195 20.5909 31.5979 21.2669 31.3353 22.0105C31.0726 22.7542 30.9754 23.5473 31.0505 24.3333L31.0244 24.3069C31.1017 25.2321 30.9782 26.1631 30.6628 27.0352C30.3474 27.9072 29.8476 28.6991 29.1984 29.3557C28.549 30.0122 27.7658 30.5176 26.9033 30.8364C26.0409 31.1553 25.12 31.2802 24.205 31.202L24.2312 31.2284C23.1366 31.1255 22.0373 31.3662 21.083 31.9181C20.1288 32.47 19.3661 33.3059 18.899 34.3122C18.4319 35.3184 18.283 36.4456 18.4728 37.5406C18.6626 38.6354 19.1817 39.6444 19.9594 40.4299C20.7371 41.2155 21.7354 41.7395 22.8183 41.9303C23.9014 42.1213 25.0161 41.9697 26.0108 41.4965C27.0055 41.0232 27.8316 40.2515 28.3765 39.2861C28.9215 38.3207 29.1587 37.209 29.0559 36.1023L29.0835 36.1288C29.0062 35.2037 29.1295 34.2725 29.4449 33.4004C29.7603 32.5284 30.2602 31.7365 30.9095 31.0799C31.5589 30.4235 32.3421 29.918 33.2044 29.5993C34.067 29.2804 34.9877 29.1555 35.9028 29.2336L35.8752 29.2072C36.7693 29.2884 37.6693 29.1402 38.4917 28.7762C39.314 28.4122 40.0322 27.8442 40.5796 27.1249C41.127 26.4055 41.4862 25.5579 41.6233 24.661C41.7606 23.7639 41.6717 22.8465 41.3649 21.9933C41.058 21.1403 40.5432 20.3794 39.8681 19.7811C39.193 19.1828 38.3794 18.7665 37.5028 18.5709C36.6262 18.3752 35.7148 18.4063 34.8533 18.6615C33.9918 18.9168 33.2081 19.3877 32.5745 20.0308H32.5701Z" fill="white"/>
<path d="M21.853 27.7647L21.8254 27.7382C22.6031 27.8174 23.3885 27.7209 24.1249 27.4556C24.8612 27.1903 25.53 26.763 26.083 26.2044C26.6357 25.6457 27.0591 24.9697 27.3219 24.2254C27.5848 23.4811 27.6809 22.6872 27.6032 21.9007L27.6308 21.9272C27.5535 21.0019 27.677 20.0709 27.9922 19.1988C28.3076 18.3268 28.8075 17.5349 29.4568 16.8783C30.1062 16.2218 30.8894 15.7164 31.7517 15.3976C32.6142 15.0787 33.535 14.9539 34.4501 15.032L34.4225 15.0056C35.5172 15.1096 36.6168 14.8695 37.5716 14.3183C38.5265 13.767 39.2898 12.9314 39.7576 11.9254C40.2254 10.9194 40.3749 9.79193 40.1857 8.69683C39.9966 7.60173 39.4779 6.59231 38.7004 5.80623C37.923 5.02016 36.9247 4.4957 35.8416 4.30441C34.7586 4.11312 33.6435 4.26428 32.6485 4.73731C31.6535 5.21032 30.8272 5.98216 30.2819 6.94756C29.7367 7.91294 29.4993 9.02487 29.6022 10.1317L29.576 10.1038C29.6535 11.029 29.5303 11.9602 29.215 12.8324C28.8998 13.7045 28.3999 14.4965 27.7506 15.1532C27.1012 15.8097 26.3179 16.3151 25.4554 16.6339C24.5927 16.9526 23.6718 17.0772 22.7567 16.9989L22.7828 17.0268C22.0051 16.9476 21.2196 17.0441 20.4833 17.3094C19.7471 17.5746 19.0782 18.002 18.5253 18.5607C17.9724 19.1193 17.5492 19.7953 17.2862 20.5396C17.0234 21.2839 16.9274 22.0779 17.0051 22.8643L16.9789 22.8379C17.0559 23.763 16.9323 24.694 16.6169 25.566C16.3014 26.4378 15.8016 27.2297 15.1524 27.8862C14.503 28.5426 13.7199 29.0479 12.8576 29.367C11.9953 29.6859 11.0745 29.8109 10.1596 29.733L10.1857 29.7595C9.09108 29.6555 7.99136 29.8955 7.03658 30.4468C6.08181 30.9981 5.31844 31.8336 4.85063 32.8397C4.38281 33.8457 4.23329 34.9731 4.42248 36.0682C4.61168 37.1633 5.13038 38.1727 5.90781 38.9588C6.68525 39.7449 7.68358 40.2693 8.76664 40.4606C9.84971 40.6519 10.9648 40.5007 11.9597 40.0277C12.9547 39.5547 13.7811 38.7829 14.3263 37.8176C14.8715 36.852 15.1089 35.7402 15.0061 34.6334L15.0337 34.6598C14.9564 33.7345 15.0799 32.8035 15.3953 31.9314C15.7105 31.0595 16.2104 30.2676 16.8597 29.611C17.5091 28.9545 18.2923 28.449 19.1546 28.1303C20.0171 27.8114 20.9379 27.6865 21.853 27.7647Z" fill="white"/>
<path d="M12.1166 24.8166C12.6673 24.2567 13.0888 23.5807 13.3513 22.837C13.6137 22.0932 13.7105 21.3 13.6348 20.5141L13.6624 20.5406C13.5851 19.6152 13.7085 18.6837 14.0241 17.8115C14.3396 16.9392 14.8397 16.1472 15.4894 15.4906C16.1391 14.834 16.9226 14.3287 17.7854 14.01C18.6482 13.6913 19.5694 13.5669 20.4847 13.6454L20.4571 13.619C21.5513 13.7227 22.6506 13.4825 23.605 12.9313C24.5593 12.3801 25.3221 11.5447 25.7898 10.539C26.2573 9.53328 26.4066 8.40625 26.2175 7.31156C26.0283 6.21687 25.5097 5.20784 24.7326 4.42205C23.9555 3.63626 22.9574 3.11197 21.8748 2.92069C20.7922 2.72939 19.6775 2.88042 18.6829 3.35315C17.6882 3.82588 16.862 4.59732 16.3169 5.56226C15.7717 6.5272 15.5342 7.63867 15.6367 8.7451L15.6106 8.71866C15.6879 9.64386 15.5644 10.575 15.249 11.447C14.9336 12.319 14.4338 13.1109 13.7845 13.7675C13.1352 14.424 12.352 14.9294 11.4895 15.2482C10.6271 15.5671 9.70624 15.6919 8.7912 15.6138L8.81735 15.6402C7.92326 15.5592 7.02339 15.7077 6.20115 16.0718C5.3789 16.436 4.66086 17.0041 4.11358 17.7236C3.5663 18.443 3.2075 19.2905 3.07038 20.1874C2.93328 21.0845 3.02232 22.002 3.32925 22.8549C3.63618 23.7079 4.15109 24.4686 4.82625 25.0668C5.5014 25.6651 6.31496 26.0812 7.19154 26.2769C8.06811 26.4724 8.97934 26.4411 9.84079 26.186C10.7022 25.9307 11.486 25.4597 12.1195 24.8166H12.1166Z" fill="white"/>
<path d="M57.1191 10.1656H61.4339V31.396H57.1191V10.1656Z" fill="white"/>
<path d="M63.8772 24.1263C63.8712 22.6006 64.3131 21.1073 65.147 19.8358C65.9809 18.5643 67.1693 17.5716 68.5617 16.9836C69.954 16.3954 71.4876 16.2384 72.9682 16.5324C74.4489 16.8263 75.81 17.5578 76.8791 18.6345C77.9482 19.7111 78.6773 21.0844 78.9739 22.5804C79.2706 24.0763 79.1214 25.6277 78.5453 27.0378C77.9693 28.4478 76.9923 29.6535 75.7381 30.5017C74.4838 31.35 73.0089 31.8029 71.4999 31.8029C70.4984 31.8145 69.5045 31.624 68.5765 31.2426C67.6484 30.8613 66.805 30.2968 66.0953 29.5821C65.3854 28.8674 64.8238 28.0167 64.443 27.08C64.0621 26.1432 63.8698 25.1391 63.8772 24.1263ZM74.8079 24.1263C74.7899 23.4686 74.5805 22.831 74.2062 22.2929C73.8316 21.755 73.3086 21.3404 72.7025 21.1014C72.0963 20.8623 71.434 20.8091 70.7981 20.9487C70.1622 21.0882 69.5811 21.414 69.1274 21.8857C68.6738 22.3572 68.3676 22.9536 68.2474 23.6002C68.1271 24.2467 68.1979 24.9148 68.4511 25.5209C68.7043 26.1269 69.1285 26.644 69.6707 27.0076C70.213 27.3711 70.8494 27.565 71.4999 27.565C71.9455 27.5771 72.3887 27.4955 72.8018 27.3257C73.2146 27.1559 73.5883 26.9015 73.899 26.5785C74.2098 26.2553 74.4511 25.8706 74.6074 25.4486C74.7639 25.0266 74.8322 24.5763 74.8079 24.1263Z" fill="white"/>
<path d="M96.3194 16.855V30.6629C96.3194 35.5486 92.5508 37.6139 88.7257 37.6139C87.3789 37.7158 86.0303 37.4407 84.8278 36.8189C83.6255 36.197 82.6157 35.2523 81.9092 34.0885L85.5906 31.9365C85.8875 32.5432 86.3607 33.0436 86.9466 33.371C87.5326 33.6983 88.2035 33.837 88.8695 33.7682C89.2952 33.8279 89.7287 33.79 90.1379 33.6573C90.547 33.5247 90.9215 33.3007 91.2336 33.002C91.5457 32.7033 91.7873 32.3375 91.9407 31.9315C92.0939 31.5256 92.155 31.0901 92.1194 30.6571V29.3277C91.6141 29.9527 90.9711 30.4493 90.2416 30.7777C89.5122 31.106 88.7169 31.2568 87.9194 31.2182C86.0217 31.1577 84.2219 30.353 82.9007 28.9743C81.5796 27.5957 80.8408 25.7513 80.8408 23.8317C80.8408 21.9121 81.5796 20.0677 82.9007 18.6891C84.2219 17.3104 86.0217 16.5057 87.9194 16.4452C88.7169 16.4066 89.5122 16.5574 90.2416 16.8857C90.9711 17.214 91.6141 17.7107 92.1194 18.3357V16.8521L96.3194 16.855ZM92.1208 23.8339C92.1499 23.1309 91.97 22.435 91.6046 21.8362C91.2393 21.2371 90.7049 20.7625 90.0705 20.4733C89.4361 20.1839 88.7306 20.0933 88.0447 20.2128C87.3589 20.3324 86.7242 20.6567 86.2221 21.1443C85.7201 21.6317 85.3739 22.2598 85.2279 22.9478C85.0821 23.6359 85.1431 24.3524 85.4034 25.0051C85.6636 25.6577 86.1111 26.2168 86.6881 26.6102C87.2652 27.0035 87.9455 27.2133 88.6414 27.2124C89.0948 27.2444 89.5497 27.1801 89.9769 27.0235C90.4042 26.8669 90.7943 26.6215 91.122 26.3033C91.4498 25.985 91.7081 25.6009 91.8801 25.1755C92.0521 24.7502 92.1342 24.2932 92.1208 23.8339Z" fill="white"/>
<path d="M98.7629 24.1263C98.7569 22.6006 99.1987 21.1073 100.033 19.8358C100.867 18.5643 102.055 17.5716 103.447 16.9836C104.84 16.3954 106.373 16.2384 107.854 16.5324C109.335 16.8263 110.696 17.5578 111.765 18.6345C112.834 19.7111 113.563 21.0844 113.86 22.5804C114.156 24.0763 114.007 25.6277 113.431 27.0378C112.855 28.4478 111.878 29.6535 110.624 30.5017C109.37 31.35 107.895 31.8029 106.386 31.8029C105.384 31.8145 104.39 31.624 103.462 31.2426C102.534 30.8613 101.691 30.2968 100.981 29.5821C100.271 28.8674 99.7095 28.0167 99.3288 27.08C98.9478 26.1432 98.7555 25.1391 98.7629 24.1263ZM109.694 24.1263C109.676 23.4686 109.466 22.831 109.092 22.2929C108.717 21.755 108.194 21.3404 107.588 21.1014C106.982 20.8623 106.32 20.8091 105.684 20.9487C105.048 21.0882 104.467 21.414 104.013 21.8857C103.56 22.3572 103.253 22.9536 103.133 23.6002C103.013 24.2467 103.084 24.9148 103.337 25.5209C103.59 26.1269 104.014 26.644 104.556 27.0076C105.099 27.3711 105.735 27.565 106.386 27.565C106.831 27.5771 107.274 27.4955 107.687 27.3257C108.1 27.1559 108.474 26.9015 108.785 26.5785C109.096 26.2553 109.337 25.8706 109.493 25.4486C109.65 25.0266 109.718 24.5763 109.694 24.1263Z" fill="white"/>
<path d="M116.021 12.958C116.021 12.4402 116.172 11.9341 116.457 11.5037C116.741 11.0732 117.146 10.7377 117.619 10.5396C118.092 10.3415 118.612 10.2896 119.115 10.3906C119.617 10.4916 120.078 10.7409 120.44 11.107C120.802 11.4731 121.049 11.9395 121.149 12.4473C121.248 12.9551 121.197 13.4814 121.001 13.9597C120.805 14.438 120.473 14.8468 120.048 15.1345C119.622 15.4221 119.121 15.5756 118.609 15.5756C117.925 15.5687 117.27 15.2908 116.786 14.8013C116.302 14.3119 116.027 13.6501 116.021 12.958ZM116.456 16.855H120.773V31.3974H116.451L116.456 16.855Z" fill="white"/>
<path d="M139.403 24.1262C139.453 25.0873 139.315 26.0489 138.996 26.9557C138.677 27.8624 138.184 28.6965 137.545 29.4099C136.906 30.1233 136.134 30.702 135.273 31.1127C134.412 31.5233 133.48 31.7579 132.529 31.8028C131.729 31.8469 130.93 31.7106 130.189 31.4037C129.448 31.0967 128.784 30.6269 128.244 30.0284V37.2129H123.93V16.855H128.244V18.2211C128.784 17.623 129.448 17.1535 130.189 16.8469C130.93 16.5402 131.729 16.4041 132.529 16.4481C133.48 16.4929 134.413 16.7274 135.274 17.1381C136.135 17.5488 136.907 18.1276 137.546 18.8412C138.185 19.5548 138.678 20.3891 138.997 21.2962C139.315 22.2031 139.454 23.1649 139.403 24.1262ZM135.089 24.1262C135.072 23.4457 134.857 22.7852 134.47 22.2275C134.084 21.6699 133.544 21.2398 132.917 20.9912C132.29 20.7425 131.605 20.6863 130.946 20.8296C130.288 20.9729 129.686 21.3093 129.216 21.7966C128.746 22.2842 128.429 22.9008 128.304 23.5699C128.179 24.2389 128.251 24.9302 128.513 25.5575C128.775 26.1849 129.213 26.7202 129.775 27.0967C130.336 27.473 130.994 27.6738 131.667 27.6737C132.129 27.6945 132.591 27.6162 133.021 27.4441C133.451 27.2721 133.841 27.0099 134.164 26.6749C134.487 26.3399 134.736 25.9397 134.896 25.5005C135.055 25.0613 135.121 24.5929 135.089 24.1262Z" fill="white"/>
<path d="M152.718 27.0332C152.718 30.378 149.843 31.8028 146.737 31.8028C145.482 31.9177 144.222 31.6495 143.12 31.0324C142.017 30.4154 141.123 29.4782 140.553 28.342L144.291 26.19C144.442 26.7152 144.767 27.1722 145.211 27.4843C145.655 27.7966 146.192 27.9454 146.731 27.9058C147.766 27.9058 148.284 27.5855 148.284 27.0053C148.284 25.4042 141.208 26.2488 141.208 21.2177C141.208 18.0463 143.855 16.4481 146.846 16.4481C147.971 16.4121 149.083 16.6818 150.07 17.229C151.056 17.7763 151.88 18.581 152.454 19.5593L148.773 21.5659C148.611 21.185 148.343 20.8605 148 20.633C147.657 20.4054 147.256 20.285 146.846 20.2864C146.098 20.2864 145.637 20.5802 145.637 21.1002C145.643 22.7586 152.718 21.6525 152.718 27.0332Z" fill="white"/>
<path d="M168.479 16.855V31.3974H164.164V30.0298C163.666 30.6333 163.034 31.1088 162.319 31.4172C161.605 31.7257 160.829 31.8584 160.053 31.8043C157.147 31.8043 154.678 29.7111 154.678 25.7817V16.855H158.993V25.1427C158.956 25.4891 158.995 25.8393 159.107 26.1688C159.218 26.4984 159.399 26.7995 159.638 27.0512C159.876 27.3028 160.165 27.4989 160.486 27.6259C160.806 27.753 161.15 27.8079 161.494 27.7868C163.076 27.7868 164.169 26.857 164.169 24.7917V16.8594L168.479 16.855Z" fill="white"/>
<path d="M193.221 22.4678V31.3959H188.906V22.8453C188.906 21.391 188.216 20.4612 186.836 20.4612C185.398 20.4612 184.591 21.4792 184.591 23.1949V31.3959H180.278V22.8453C180.278 21.391 179.588 20.4612 178.206 20.4612C176.768 20.4612 175.963 21.4792 175.963 23.1949V31.3959H171.648V16.8535H175.963V18.1903C176.411 17.5973 176.998 17.1269 177.67 16.8224C178.344 16.5177 179.082 16.3886 179.817 16.4466C180.555 16.4101 181.291 16.5677 181.952 16.9039C182.611 17.24 183.173 17.7436 183.585 18.3651C184.062 17.7148 184.696 17.1977 185.425 16.8622C186.154 16.5267 186.956 16.3838 187.755 16.4466C191.058 16.4481 193.221 18.8322 193.221 22.4678Z" fill="white"/>
<path d="M196.87 16.7655C198.638 16.7655 200.072 15.316 200.072 13.528C200.072 11.7399 198.638 10.2905 196.87 10.2905C195.102 10.2905 193.668 11.7399 193.668 13.528C193.668 15.316 195.102 16.7655 196.87 16.7655Z" fill="white"/>
</svg>
