<svg width="182" height="47" viewBox="0 0 182 47" fill="none" xmlns="http://www.w3.org/2000/svg">
<path d="M54.5186 14.8387H58.8925V32.3998H54.5186V14.8387ZM60.6275 25.7691C60.6275 21.4259 63.3102 18.8344 67.4509 18.8344C71.5916 18.8344 74.2743 21.4259 74.2743 25.7691C74.2743 30.1123 71.65 32.7183 67.4509 32.7183C63.2519 32.7183 60.6275 30.1847 60.6275 25.7691ZM69.8858 25.7691C69.8858 23.3803 68.9381 21.976 67.4509 21.976C65.9638 21.976 65.0307 23.4238 65.0307 25.7691C65.0307 28.1145 65.9492 29.5332 67.4509 29.5332C68.9527 29.5332 69.8858 28.2013 69.8858 25.7836V25.7691ZM75.9219 33.2539H80.1209C80.3208 33.6948 80.6586 34.0597 81.0842 34.2946C81.5098 34.5292 82.0004 34.6213 82.4828 34.5569C84.1449 34.5569 85.0197 33.6593 85.0197 32.3563V29.9241H84.9323C84.5838 30.6696 84.0182 31.2941 83.3088 31.7174C82.5993 32.1406 81.7783 32.343 80.9519 32.2984C77.7589 32.2984 75.6449 29.8807 75.6449 25.7257C75.6449 21.5707 77.6569 18.9503 81.0103 18.9503C81.8626 18.9171 82.7047 19.1434 83.424 19.5987C84.1432 20.0542 84.7051 20.7169 85.0343 21.4983V19.0806H89.4083V32.255C89.4083 35.4255 86.5944 37.3945 82.4391 37.3945C78.5754 37.3945 76.1697 35.6717 75.9219 33.2684V33.2539ZM85.0343 25.7546C85.0343 23.6409 84.0575 22.309 82.512 22.309C80.9665 22.309 80.0188 23.6265 80.0188 25.7546C80.0188 27.8828 80.9519 29.0844 82.512 29.0844C84.072 29.0844 85.0343 27.9118 85.0343 25.7691V25.7546ZM91.0558 25.7546C91.0558 21.4114 93.7385 18.82 97.8792 18.82C102.02 18.82 104.717 21.4114 104.717 25.7546C104.717 30.0979 102.093 32.7038 97.8792 32.7038C93.6656 32.7038 91.0558 30.1847 91.0558 25.7691V25.7546ZM100.314 25.7546C100.314 23.3659 99.3664 21.9616 97.8792 21.9616C96.3921 21.9616 95.5319 23.4238 95.5319 25.7836C95.5319 28.1434 96.4504 29.5477 97.9375 29.5477C99.4247 29.5477 100.314 28.2013 100.314 25.7836V25.7546ZM106.379 15.9245C106.368 15.486 106.488 15.054 106.724 14.6832C106.96 14.3124 107.302 14.0197 107.706 13.8419C108.109 13.6642 108.557 13.6096 108.992 13.6849C109.428 13.7603 109.831 13.9622 110.15 14.2652C110.47 14.5682 110.691 14.9586 110.787 15.3868C110.883 15.815 110.848 16.2618 110.688 16.6707C110.528 17.0793 110.249 17.4317 109.887 17.6829C109.525 17.9341 109.095 18.0729 108.654 18.0816C108.361 18.1016 108.067 18.0612 107.791 17.963C107.515 17.8649 107.262 17.7111 107.048 17.5112C106.834 17.3114 106.665 17.0698 106.55 16.8017C106.435 16.5337 106.377 16.2449 106.379 15.9534V15.9245ZM106.379 19.1095H110.753V32.3998H106.379V19.1095ZM126.631 25.7546C126.631 30.0979 124.692 32.5735 121.367 32.5735C120.515 32.6278 119.666 32.4209 118.936 31.9808C118.206 31.5405 117.63 30.8883 117.285 30.1123H117.198V36.6561H112.824V19.0806H117.198V21.4549H117.285C117.614 20.666 118.179 19.9968 118.904 19.5383C119.63 19.0798 120.479 18.8543 121.338 18.8924C124.692 18.9503 126.689 21.4404 126.689 25.7836L126.631 25.7546ZM122.257 25.7546C122.257 23.6409 121.28 22.2945 119.749 22.2945C118.218 22.2945 117.241 23.6554 117.227 25.7546C117.212 27.8539 118.218 29.2003 119.749 29.2003C121.28 29.2003 122.257 27.8828 122.257 25.7836V25.7546ZM134.139 18.8055C137.77 18.8055 139.971 20.5138 140.074 23.2501H136.093C136.093 22.309 135.306 21.7154 134.096 21.7154C132.886 21.7154 132.346 22.1787 132.346 22.8592C132.346 23.5396 132.827 23.7568 133.804 23.9594L136.603 24.5241C139.272 25.0887 140.409 26.16 140.409 28.1724C140.409 30.9231 137.887 32.6893 134.169 32.6893C130.451 32.6893 128.016 30.9231 127.826 28.2158H132.04C132.171 29.2003 132.959 29.7794 134.242 29.7794C135.525 29.7794 136.108 29.3595 136.108 28.6646C136.108 27.9697 135.7 27.8249 134.65 27.6077L132.127 27.0721C129.518 26.5364 128.147 25.1611 128.147 23.1342C128.176 20.5283 130.524 18.8344 134.139 18.8344V18.8055ZM155.003 32.3708H150.79V29.8952H150.702C150.47 30.7263 149.96 31.4538 149.254 31.9569C148.549 32.4599 147.692 32.7081 146.824 32.6604C146.159 32.6979 145.495 32.5933 144.874 32.3537C144.254 32.1141 143.693 31.7452 143.228 31.2717C142.764 30.7983 142.407 30.2312 142.182 29.6091C141.958 28.987 141.87 28.3242 141.925 27.6657V19.0806H146.299V26.6667C146.299 28.2448 147.116 29.0844 148.472 29.0844C148.789 29.085 149.104 29.0183 149.394 28.8884C149.683 28.7586 149.943 28.5686 150.153 28.3315C150.361 28.0942 150.519 27.8152 150.61 27.5132C150.702 27.2111 150.73 26.8929 150.688 26.5799V19.0806H155.062L155.003 32.3708ZM157.117 19.0806H161.346V21.6431H161.433C161.665 20.8229 162.165 20.1022 162.853 19.5941C163.541 19.0859 164.381 18.8187 165.238 18.8344C166.112 18.7651 166.978 19.0244 167.667 19.5609C168.356 20.0975 168.816 20.8717 168.956 21.7299H169.044C169.308 20.8626 169.856 20.1074 170.601 19.5832C171.344 19.059 172.244 18.7955 173.155 18.8344C173.75 18.8146 174.342 18.9193 174.893 19.1417C175.446 19.3639 175.943 19.699 176.356 20.125C176.768 20.551 177.086 21.0585 177.289 21.6143C177.49 22.17 177.573 22.762 177.529 23.3514V32.3998H173.155V24.5096C173.155 23.0618 172.499 22.3959 171.275 22.3959C171.002 22.3936 170.731 22.4495 170.481 22.5598C170.232 22.6701 170.009 22.8322 169.828 23.0354C169.647 23.2385 169.512 23.4776 169.432 23.7369C169.351 23.9964 169.33 24.2697 169.365 24.5385V32.3998H165.209V24.4517C165.209 23.1198 164.553 22.3959 163.358 22.3959C163.082 22.396 162.808 22.4542 162.557 22.5667C162.305 22.6794 162.079 22.8437 161.897 23.0488C161.713 23.254 161.576 23.4954 161.493 23.7573C161.411 24.0191 161.385 24.2952 161.419 24.5675V32.3998H157.045L157.117 19.0806Z" fill="white"/>
<path d="M42.286 15.6349C41.544 13.9502 40.5621 12.3803 39.37 10.9732C37.608 8.831 35.4091 7.08365 32.918 5.84614C30.4268 4.60864 27.7 3.90902 24.9169 3.79333C22.1339 3.67764 19.3578 4.1485 16.7711 5.17495C14.1846 6.20138 11.8463 7.76012 9.91013 9.74856C7.97394 11.737 6.4838 14.1101 5.53779 16.7116C4.59177 19.313 4.2113 22.084 4.42146 24.8419C4.63163 27.6 5.42762 30.2825 6.75707 32.713C8.08653 35.1436 9.9193 37.267 12.1347 38.9435C13.5563 40.0407 15.1271 40.9327 16.8003 41.5929C19.1462 42.5475 21.657 43.0392 24.1923 43.0406C29.4256 43.0292 34.4408 40.9577 38.1387 37.2805C41.8365 33.6032 43.9152 28.6202 43.9189 23.4237C43.9227 20.7432 43.3668 18.0911 42.286 15.6349ZM24.1777 7.77364C26.4545 7.77341 28.7038 8.26752 30.7679 9.22138C30.2646 9.43734 29.7353 9.58818 29.1932 9.6702C27.4095 9.92658 25.7572 10.7489 24.4828 12.0143C23.2083 13.2798 22.3802 14.9206 22.122 16.6917C22.0087 17.685 21.5536 18.6091 20.8338 19.3081C20.114 20.0071 19.1735 20.4379 18.1708 20.5282C16.3871 20.7846 14.7347 21.607 13.4603 22.8724C12.1859 24.1379 11.3578 25.7786 11.0996 27.5498C11.0122 28.4943 10.6063 29.3819 9.94776 30.0689C8.81147 27.6849 8.30103 25.054 8.46392 22.4215C8.6268 19.7889 9.45773 17.24 10.8794 15.0119C12.301 12.784 14.2672 10.9493 16.5949 9.67865C18.9226 8.40801 21.5362 7.74273 24.1923 7.74469L24.1777 7.77364ZM12.1202 33.5579C12.2951 33.3987 12.4701 33.2539 12.645 33.0802C13.9421 31.8315 14.7747 30.1831 15.007 28.404C15.1011 27.4039 15.5508 26.4698 16.2754 25.7691C16.9728 25.0484 17.9113 24.6055 18.9144 24.524C20.6981 24.2676 22.3504 23.4453 23.6249 22.1798C24.8993 20.9144 25.7274 19.2736 25.9857 17.5025C26.0488 16.4565 26.5008 15.471 27.2541 14.7373C27.9687 14.0306 28.9161 13.6038 29.9222 13.5356C31.5609 13.3118 33.0891 12.5884 34.2962 11.4654C35.6707 12.5976 36.835 13.9597 37.7371 15.4901C37.6817 15.5644 37.6181 15.6324 37.5475 15.6928C36.8516 16.4198 35.9143 16.8724 34.9086 16.9668C33.123 17.2187 31.4681 18.0396 30.1928 19.3058C28.9177 20.5721 28.091 22.2153 27.8373 23.9883C27.7345 24.985 27.2879 25.9157 26.5732 26.6228C25.8584 27.33 24.9194 27.77 23.9153 27.8683C22.1263 28.1227 20.4679 28.9434 19.186 30.2083C17.9043 31.4733 17.0676 33.115 16.8003 34.8898C16.7219 35.5973 16.4771 36.2768 16.0859 36.8732C14.59 35.9913 13.2502 34.8713 12.1202 33.5579ZM24.1777 39.1462C22.6983 39.1478 21.2259 38.9431 19.8038 38.5381C20.2903 37.6376 20.6065 36.6562 20.7369 35.6427C20.8391 34.6482 21.2836 33.7192 21.9954 33.0124C22.7072 32.3056 23.6428 31.8642 24.6443 31.7627C26.4306 31.5092 28.0863 30.6882 29.3637 29.4224C30.6409 28.1568 31.4712 26.5144 31.7301 24.7412C31.8323 23.7467 32.2769 22.8177 32.9887 22.1109C33.7005 21.4041 34.6361 20.9627 35.6376 20.8612C36.9818 20.6876 38.2631 20.1906 39.37 19.4135C39.9847 21.7268 40.0575 24.1492 39.5829 26.4948C39.1083 28.8404 38.0988 31.0471 36.6321 32.9452C35.1653 34.8432 33.2803 36.3826 31.1213 37.4449C28.9624 38.5073 26.5872 39.0645 24.1777 39.0738V39.1462Z" fill="white"/>
</svg>
