<svg width="13" height="13" viewBox="0 0 13 13" fill="none" xmlns="http://www.w3.org/2000/svg">
<g filter="url(#filter0_i_77_1630)">
<path fill-rule="evenodd" clip-rule="evenodd" d="M9.19028 7.62089C9.04249 7.54675 8.31794 7.18947 8.18305 7.13971C8.04816 7.09045 7.94996 7.06606 7.85127 7.21435C7.75308 7.36164 7.4709 7.69503 7.3851 7.79356C7.29881 7.89258 7.21302 7.90452 7.06572 7.83088C6.91843 7.75624 6.44334 7.60049 5.88046 7.09692C5.44256 6.70481 5.14649 6.22064 5.06069 6.07235C4.9749 5.92457 5.05127 5.84445 5.12516 5.77081C5.19162 5.70462 5.27245 5.59814 5.34635 5.51205C5.42024 5.42547 5.44454 5.36377 5.49364 5.26474C5.54323 5.16622 5.51843 5.08013 5.48124 5.00599C5.44454 4.93185 5.14996 4.20386 5.02697 3.90778C4.90745 3.61967 4.78595 3.65898 4.69569 3.65401C4.6094 3.65003 4.51121 3.64903 4.41301 3.64903C4.31482 3.64903 4.15513 3.68585 4.02024 3.83414C3.88485 3.98193 3.50447 4.3397 3.50447 5.06769C3.50447 5.79519 4.03214 6.4983 4.10603 6.59732C4.17993 6.69585 5.145 8.18965 6.62336 8.83006C6.97547 8.98233 7.24971 9.07339 7.46346 9.14107C7.81656 9.25402 8.13792 9.2381 8.39183 9.19978C8.67451 9.15749 9.26367 8.84201 9.38666 8.49667C9.50916 8.15133 9.50916 7.85526 9.47246 7.79356C9.43576 7.73186 9.33757 7.69503 9.18978 7.62089H9.19028ZM6.50136 11.3046H6.49938C5.6213 11.3048 4.75935 11.068 4.00387 10.6189L3.82534 10.5125L1.96958 11.0011L2.46501 9.18585L2.34847 8.99975C1.85757 8.2157 1.59778 7.30829 1.59912 6.38236C1.60012 3.67043 3.79906 1.46406 6.50334 1.46406C7.81259 1.46406 9.04348 1.97659 9.96888 2.90611C10.4253 3.3622 10.7871 3.90458 11.0333 4.50187C11.2795 5.09916 11.4052 5.7395 11.4031 6.38584C11.4021 9.09777 9.20317 11.3046 6.50136 11.3046ZM10.6731 2.20001C10.1267 1.64813 9.47654 1.21055 8.76035 0.912616C8.04416 0.614683 7.27616 0.462327 6.50086 0.464376C3.25056 0.464376 0.604295 3.11908 0.603304 6.38186C0.602808 7.42484 0.87408 8.44293 1.39034 9.34011L0.553711 12.4068L3.68003 11.5838C4.54487 12.0566 5.51402 12.3043 6.49888 12.3043H6.50136C9.75166 12.3043 12.3979 9.64962 12.3989 6.38634C12.4013 5.60872 12.25 4.83835 11.9538 4.11978C11.6576 3.40121 11.2223 2.7487 10.6731 2.20001Z" fill="black"/>
</g>
<defs>
<filter id="filter0_i_77_1630" x="0.553711" y="0.464355" width="11.8457" height="13.3628" filterUnits="userSpaceOnUse" color-interpolation-filters="sRGB">
<feFlood flood-opacity="0" result="BackgroundImageFix"/>
<feBlend mode="normal" in="SourceGraphic" in2="BackgroundImageFix" result="shape"/>
<feColorMatrix in="SourceAlpha" type="matrix" values="0 0 0 0 0 0 0 0 0 0 0 0 0 0 0 0 0 0 127 0" result="hardAlpha"/>
<feOffset dy="1.42045"/>
<feGaussianBlur stdDeviation="0.710226"/>
<feComposite in2="hardAlpha" operator="arithmetic" k2="-1" k3="1"/>
<feColorMatrix type="matrix" values="0 0 0 0 0 0 0 0 0 0 0 0 0 0 0 0 0 0 0.25 0"/>
<feBlend mode="normal" in2="shape" result="effect1_innerShadow_77_1630"/>
</filter>
</defs>
</svg>
