<svg width="14" height="9" viewBox="0 0 14 9" fill="none" xmlns="http://www.w3.org/2000/svg">
<path d="M13.1184 1.64292C13.0471 1.38857 12.9082 1.1583 12.7165 0.976581C12.5193 0.789272 12.2777 0.655286 12.0144 0.587269C11.0291 0.327553 7.08141 0.327553 7.08141 0.327553C5.43566 0.308829 3.79032 0.391183 2.15467 0.574152C1.89138 0.647194 1.65023 0.784174 1.45265 0.972908C1.25852 1.15969 1.11791 1.39003 1.04445 1.6424C0.868 2.59298 0.782267 3.55818 0.78841 4.52498C0.782114 5.49092 0.867636 6.4558 1.04445 7.40757C1.11633 7.65889 1.25642 7.88818 1.45108 8.07339C1.64573 8.2586 1.88814 8.39239 2.15467 8.46322C3.15314 8.72242 7.08141 8.72241 7.08141 8.72241C8.72925 8.74117 10.3767 8.65881 12.0144 8.47582C12.2777 8.4078 12.5193 8.27381 12.7165 8.0865C12.9106 7.90129 13.0486 7.67096 13.1178 7.42016C13.2989 6.46994 13.3869 5.50435 13.3807 4.53705C13.3943 3.56566 13.3064 2.59551 13.1184 1.6424V1.64292ZM5.82638 6.32148V2.72901L9.11087 4.52551L5.82638 6.32148Z" fill="black"/>
</svg>
